# xmcd CD database file
#
# Track frame offsets:
#	150
#	16837
#	30687
#	47775
#	64500
#
# Disc length: 1041 seconds
#
# Revision: 5
# Processed by: cddbd v1.5PL3 Copyright (c) Steve Scherf et al.
# Submitted via: CDex 1.50
#
DISCID=35040f05
DTITLE=SURFACE - ゴーイング my 上へ
DYEAR=2000
DGENRE=Rock
TTITLE0=ゴーイング my 上へ
TTITLE1=samurai mania
TTITLE2=まだまだ -transit mix-
TTITLE3=ゴーイング my 上へ (Instrumental)
TTITLE4=samurai mania (ochimusha version)
EXTD=YEAR: 2000
EXTT0=
EXTT1=
EXTT2=
EXTT3=
EXTT4=
PLAYORDER=
